HIERARCHY
ROOT Hips
{
	OFFSET 0.000000 0.000000 0.000000
	CHANNELS 6 Xposition Yposition Zposition Xrotation Yrotation Zrotation
	JOINT LeftUpLeg_virtual
	{
		OFFSET 0.000000 0.000000 0.000000
		CHANNELS 3 Xrotation Yrotation Zrotation
		JOINT LeftUpLeg
		{
			OFFSET 10.205400 -3.823500 0.155100
			CHANNELS 3 Xrotation Yrotation Zrotation
			JOINT LeftLeg
			{
				OFFSET 0.708757 -12.982077 0.567790
				CHANNELS 3 Xrotation Yrotation Zrotation
				JOINT LeftFoot
				{
					OFFSET -0.708756 -10.717838 -2.184338
					CHANNELS 3 Xrotation Yrotation Zrotation
					JOINT LeftToeBase
					{
						OFFSET 0.108149 -7.191104 7.560241
						CHANNELS 3 Xrotation Yrotation Zrotation
						JOINT LeftToe_End
						{
							OFFSET 0.070230 0.081724 4.490308
							CHANNELS 3 Xrotation Yrotation Zrotation
							End Site
							{
								OFFSET 0 0 0
							}
						}
					}
				}
			}
		}
	}
	JOINT RightUpLeg_virtual
	{
		OFFSET 0.000000 0.000000 0.000000
		CHANNELS 3 Xrotation Yrotation Zrotation
		JOINT RightUpLeg
		{
			OFFSET -10.205400 -3.823500 0.005500
			CHANNELS 3 Xrotation Yrotation Zrotation
			JOINT RightLeg
			{
				OFFSET -0.708756 -12.982134 0.610632
				CHANNELS 3 Xrotation Yrotation Zrotation
				JOINT RightFoot
				{
					OFFSET 0.708754 -10.717769 -1.945823
					CHANNELS 3 Xrotation Yrotation Zrotation
					JOINT RightToeBase
					{
						OFFSET -0.108140 -7.191069 7.372968
						CHANNELS 3 Xrotation Yrotation Zrotation
						JOINT RightToe_End
						{
							OFFSET -0.070227 0.081735 4.479403
							CHANNELS 3 Xrotation Yrotation Zrotation
							End Site
							{
								OFFSET 0 0 0
							}
						}
					}
				}
			}
		}
	}
	JOINT Spine_virtual
	{
		OFFSET 0.000000 0.000000 0.000000
		CHANNELS 3 Xrotation Yrotation Zrotation
		JOINT Spine
		{
			OFFSET 0.000000 6.876099 0.125700
			CHANNELS 3 Xrotation Yrotation Zrotation
			JOINT Spine1
			{
				OFFSET 0.000000 5.730043 0.104720
				CHANNELS 3 Xrotation Yrotation Zrotation
				JOINT Spine1_split
				{
					OFFSET 0.000000 5.730043 0.104720
					CHANNELS 3 Xrotation Yrotation Zrotation
					JOINT Spine2
					{
						OFFSET 0.000000 5.730043 0.104720
						CHANNELS 3 Xrotation Yrotation Zrotation
						JOINT Neck_virtual
						{
							OFFSET 0.000000 0.000000 0.000000
							CHANNELS 3 Xrotation Yrotation Zrotation
							JOINT Neck
							{
								OFFSET 0.000000 10.314075 0.188496
								CHANNELS 3 Xrotation Yrotation Zrotation
								JOINT Head
								{
									OFFSET 0.000000 7.643700 -2.377400
									CHANNELS 3 Xrotation Yrotation Zrotation
									JOINT HeadTop_End
									{
										OFFSET 0.000000 43.788605 -13.619600
										CHANNELS 3 Xrotation Yrotation Zrotation
										End Site
										{
											OFFSET 0 0 0
										}
									}
								}
							}
						}
						JOINT LeftShoulder_virtual
						{
							OFFSET 0.000000 0.000000 0.000000
							CHANNELS 3 Xrotation Yrotation Zrotation
							JOINT LeftShoulder
							{
								OFFSET 2.196100 4.412489 0.087492
								CHANNELS 3 Xrotation Yrotation Zrotation
								JOINT LeftShoulder_split
								{
									OFFSET 2.196100 4.412489 0.087492
									CHANNELS 3 Xrotation Yrotation Zrotation
									JOINT LeftArm
									{
										OFFSET 8.771219 -2.981674 -0.026999
										CHANNELS 3 Xrotation Yrotation Zrotation
										JOINT LeftForeArm
										{
											OFFSET 8.512804 0.000000 -0.000000
											CHANNELS 3 Xrotation Yrotation Zrotation
											JOINT LeftHand
											{
												OFFSET 18.484802 0.000000 -0.000000
												CHANNELS 3 Xrotation Yrotation Zrotation
												End Site
												{
													OFFSET 0 0 0
												}
											}
										}
									}
								}
							}
						}
						JOINT RightShoulder_virtual
						{
							OFFSET 0.000000 0.000000 0.000000
							CHANNELS 3 Xrotation Yrotation Zrotation
							JOINT RightShoulder
							{
								OFFSET -2.196100 4.412496 0.070690
								CHANNELS 3 Xrotation Yrotation Zrotation
								JOINT RightShoulder_split
								{
									OFFSET -2.196100 4.412496 0.070690
									CHANNELS 3 Xrotation Yrotation Zrotation
									JOINT RightArm
									{
										OFFSET -8.771282 -2.981682 -0.094208
										CHANNELS 3 Xrotation Yrotation Zrotation
										JOINT RightForeArm
										{
											OFFSET -8.494598 0.000000 0.000000
											CHANNELS 3 Xrotation Yrotation Zrotation
											JOINT RightHand
											{
												OFFSET -18.483803 0.000000 0.000001
												CHANNELS 3 Xrotation Yrotation Zrotation
												End Site
												{
													OFFSET 0 0 0
												}
											}
										}
									}
								}
							}
						}
					}
				}
			}
		}
	}
}
MOTION
Frames: 5
Frame Time: 0.03333333
-2.657998 33.200768 -3.533722 0.000000 0.000000 0.000000 -8.720673 -0.511555 2.912518 -7.747159 7.748698 -2.186684 27.629328 -0.859008 -0.529026 -11.871735 4.379119 2.105818 -0.000008 0.000002 -0.000002 0.000000 0.000000 0.000000 -8.720673 -0.511555 2.912518 -8.715863 -14.585563 -15.881482 38.788190 2.892001 1.264221 -21.125977 -16.570937 4.099148 -0.000197 -0.000005 0.000245 0.000000 0.000000 0.000000 -8.720673 -0.511555 2.912518 7.525465 1.404542 -3.971376 15.001694 3.208856 -3.005016 0.000000 0.000000 0.000000 0.000000 0.000000 0.000000 15.025229 3.101745 -2.981808 35.367177 0.454795 -4.927123 -0.614285 1.721699 -4.974583 0.000000 0.000000 0.000000 15.025229 3.101745 -2.981808 -2.107450 -21.664062 -27.014307 0.000000 0.000000 0.000000 -4.070736 -46.646493 -32.633599 4.425122 -22.863066 1.574485 0.000000 0.000000 0.000000 15.025229 3.101745 -2.981808 -2.505626 24.220855 26.971276 0.000000 0.000000 0.000000 -4.213944 20.673434 36.929269 27.080508 37.419243 -10.824413 0.000000 0.000000 0.000000 
-2.434700 33.362934 -3.498596 0.000000 0.000000 0.000000 -9.896076 -1.146069 3.310841 -4.098650 8.632295 -3.353337 23.732483 -0.762550 -0.460454 -10.351412 4.057275 2.553128 -0.000016 -0.000004 0.000001 0.000000 0.000000 0.000000 -9.896076 -1.146069 3.310841 -7.275660 -14.434736 -17.029316 37.434614 2.964736 1.423215 -20.034869 -16.005263 4.733809 -0.000146 0.000004 0.000192 0.000000 0.000000 0.000000 -9.896076 -1.146069 3.310841 6.785000 1.547916 -4.225757 13.499554 3.300435 -3.157294 0.000000 0.000000 0.000000 0.000000 0.000000 0.000000 13.525421 3.199132 -3.135813 33.353426 1.110184 -4.334505 -1.596122 2.537175 -5.856431 0.000000 0.000000 0.000000 13.525421 3.199132 -3.135813 -1.205566 -20.666522 -24.364041 0.000000 0.000000 0.000000 1.602657 -41.933608 -31.598234 4.490931 -26.563574 0.875705 0.000000 0.000000 0.000000 13.525421 3.199132 -3.135813 -1.348453 22.309566 23.910452 0.000000 0.000000 0.000000 2.405171 20.579674 39.044834 30.735045 42.386105 -15.654503 0.000000 0.000000 0.000000 
-2.224106 33.414970 -3.471659 0.000000 0.000000 0.000000 -10.283098 -1.506284 3.633072 -2.330890 9.342387 -4.332500 21.656641 -0.712679 -0.382006 -9.571256 3.699344 3.004331 0.000003 -0.000001 -0.000001 0.000000 0.000000 0.000000 -10.283098 -1.506284 3.633072 -7.084927 -14.201218 -18.102619 37.191227 3.063429 1.516985 -19.559399 -15.687490 5.310737 -0.000178 0.000034 0.000229 0.000000 0.000000 0.000000 -10.283098 -1.506284 3.633072 6.083684 1.556928 -4.445878 12.086296 3.177756 -3.317952 0.000000 0.000000 0.000000 0.000000 0.000000 0.000000 12.112674 3.083689 -3.298397 30.904844 1.645485 -3.990190 -2.591291 2.961593 -5.738696 0.000000 0.000000 0.000000 12.112674 3.083689 -3.298397 0.051151 -19.230223 -20.982100 0.000000 0.000000 0.000000 4.852677 -36.960510 -32.152344 6.739162 -28.723862 1.369265 0.000000 0.000000 0.000000 12.112674 3.083689 -3.298397 -0.076859 20.530189 20.303495 0.000000 0.000000 0.000000 6.411397 20.396589 41.725185 31.669384 45.382406 -17.619851 0.000000 0.000000 0.000000 
-2.055326 33.403328 -3.414027 0.000000 0.000000 0.000000 -10.118632 -1.786089 3.902623 -1.740762 9.937908 -5.079099 20.839705 -0.696592 -0.319187 -9.432827 3.427089 3.375321 0.000000 0.000000 0.000004 0.000000 0.000000 0.000000 -10.118632 -1.786089 3.902623 -7.651408 -13.831206 -19.000618 37.640927 3.163777 1.555407 -19.545741 -15.523470 5.787999 -0.000225 -0.000010 0.000283 0.000000 0.000000 0.000000 -10.118632 -1.786089 3.902623 5.397233 1.519308 -4.676855 10.707921 3.001653 -3.485508 0.000000 0.000000 0.000000 0.000000 0.000000 0.000000 10.734436 2.915115 -3.467963 27.895261 2.104593 -3.063924 -3.214823 3.297947 -5.636960 0.000000 0.000000 0.000000 10.734436 2.915115 -3.467963 1.434093 -17.670114 -17.056500 0.000000 0.000000 0.000000 5.145476 -32.111684 -34.387796 10.769991 -28.265319 2.445287 0.000000 0.000000 0.000000 10.734436 2.915115 -3.467963 1.094262 18.911727 16.755142 0.000000 0.000000 0.000000 7.613259 19.725270 44.846066 30.069676 45.972091 -16.293073 0.000000 0.000000 0.000000 
-1.946282 33.403316 -3.352249 0.000000 0.000000 0.000000 -9.807935 -1.843346 3.988266 -1.707680 10.186075 -5.441201 20.544447 -0.689464 -0.300864 -9.453914 3.275737 3.621127 -0.000013 0.000006 -0.000001 0.000000 0.000000 0.000000 -9.807935 -1.843346 3.988266 -8.038902 -13.871961 -19.489919 37.615860 3.215545 1.580400 -19.424016 -15.302755 6.110311 -0.000133 -0.000007 0.000184 0.000000 0.000000 0.000000 -9.807935 -1.843346 3.988266 4.781208 1.480968 -4.854194 9.470099 2.843625 -3.500506 0.000000 0.000000 0.000000 0.000000 0.000000 0.000000 9.496675 2.764193 -3.484830 25.306209 2.182155 -2.251186 -4.197681 3.148811 -4.948922 0.000000 0.000000 0.000000 9.496675 2.764193 -3.484830 2.593112 -16.440863 -13.309863 0.000000 0.000000 0.000000 2.934864 -26.504201 -37.776151 15.934992 -26.143971 2.974177 0.000000 0.000000 0.000000 9.496675 2.764193 -3.484830 2.014505 17.544550 13.805256 0.000000 0.000000 0.000000 6.688014 17.694891 48.237760 29.938693 44.566127 -15.018285 0.000000 0.000000 0.000000 
